<svg width="16" height="16" viewBox="0 0 16 16" fill="none" xmlns="http://www.w3.org/2000/svg">
<g id="icons 16px">
<g id="Vector">
<path fill-rule="evenodd" clip-rule="evenodd" d="M6.61796 3.83001C6.55356 3.83001 6.4947 3.86639 6.4659 3.92399L5.7423 5.3712C5.6017 5.65239 5.3143 5.83001 4.99992 5.83001H1.99992C1.90603 5.83001 1.82992 5.90613 1.82992 6.00001V12C1.82992 12.6462 2.35375 13.17 2.99992 13.17H12.9999C13.6461 13.17 14.1699 12.6462 14.1699 12V6.00001C14.1699 5.90613 14.0938 5.83001 13.9999 5.83001H10.9999C10.6855 5.83001 10.3981 5.65239 10.2575 5.3712L9.53394 3.92399C9.50514 3.86639 9.44628 3.83001 9.38189 3.83001H6.61796ZM4.98115 3.18161C5.29114 2.56164 5.9248 2.17001 6.61796 2.17001H9.38189C10.075 2.17001 10.7087 2.56164 11.0187 3.18161L11.5129 4.17001H13.9999C15.0106 4.17001 15.8299 4.98933 15.8299 6.00001V12C15.8299 13.563 14.5629 14.83 12.9999 14.83H2.99992C1.43696 14.83 0.169922 13.563 0.169922 12V6.00001C0.169922 4.98933 0.989241 4.17001 1.99992 4.17001H4.48695L4.98115 3.18161Z" fill="#42AB44"/>
<path fill-rule="evenodd" clip-rule="evenodd" d="M7.16992 7.00001C7.16992 6.54162 7.54153 6.17001 7.99992 6.17001C9.56289 6.17001 10.8299 7.43705 10.8299 9.00001C10.8299 10.563 9.56289 11.83 7.99992 11.83C6.43696 11.83 5.16992 10.563 5.16992 9.00001C5.16992 8.56583 5.26827 8.1523 5.44468 7.78252C5.64206 7.3688 6.13746 7.19341 6.55118 7.39079C6.96491 7.58817 7.14029 8.08356 6.94292 8.49729C6.87074 8.64859 6.82992 8.81837 6.82992 9.00001C6.82992 9.64619 7.35375 10.17 7.99992 10.17C8.6461 10.17 9.16992 9.64619 9.16992 9.00001C9.16992 8.35384 8.6461 7.83001 7.99992 7.83001C7.54153 7.83001 7.16992 7.45841 7.16992 7.00001Z" fill="#42AB44"/>
</g>
</g>
</svg>
