<svg width="40" height="40" viewBox="0 0 40 40" fill="none" xmlns="http://www.w3.org/2000/svg">
<g id="icon">
<g id="Group 2138">
<path id="Vector" fill-rule="evenodd" clip-rule="evenodd" d="M0.744493 25.38C1.13964 26.7882 1.686 28.1494 2.37402 29.44C2.80198 30.2326 3.27946 30.9975 3.80361 31.73C5.04325 27.93 9.51195 24.57 16.3 22.48C20.1489 21.29 20.0089 19.35 19.2991 15.02C18.9382 13.1427 18.7906 11.2305 18.8592 9.32C19.0682 7.24064 19.929 5.28059 21.3185 3.72C22.4903 2.43777 23.9309 1.43042 25.5373 0.77C23.9534 0.308945 22.3176 0.0502231 20.6687 0C17.6696 5.92 15.5702 7.05 14.0206 7.87C12.681 8.58 11.8013 9.05 10.4817 14.77C9.98533 17.2608 8.81482 19.5674 7.09778 21.4383C5.38073 23.3093 3.18309 24.6727 0.744493 25.38ZM17.5996 0.13C14.9601 0.448505 12.4106 1.29038 10.1003 2.60637C7.78994 3.92236 5.76519 5.68604 4.1445 7.7942C2.5238 9.90236 1.33971 12.3127 0.661497 14.8841C-0.0167157 17.4556 -0.175426 20.1365 0.194652 22.77C4.08353 21.64 6.84273 18.56 7.86243 14.18C9.37199 7.62 10.6916 6.62 12.731 5.55C14.0007 4.91 15.4002 4.14 17.5996 0.13ZM28.9963 2.11H28.8231C25.994 2.52 21.8984 5.18 21.5885 9.51C21.5145 11.2211 21.6319 12.935 21.9384 14.62C22.5682 18.62 23.278 23.12 17.0698 25.04C11.8013 26.64 5.63308 29.83 5.63308 33.88C6.63397 34.9229 7.74708 35.8519 8.95211 36.65C9.89184 34.45 12.0412 30.35 15.4302 28.84C16.3376 28.4314 17.3245 28.2299 18.3194 28.25C19.3165 28.2604 20.2993 28.489 21.1986 28.92C21.8746 29.1529 22.4732 29.5682 22.9281 30.12C23.3858 30.6714 23.6802 31.3399 23.7778 32.05C24.0777 34.84 21.0386 38.05 18.7793 39.96C19.9192 40.0283 21.0628 40.0016 22.1983 39.88C24.2784 38.5898 25.6584 36.2977 26.7769 34.12C30.006 28.22 28.6764 24.26 27.3968 20.44C26.7282 18.7753 26.3169 17.0185 26.1771 15.23C25.9972 8.48 29.6061 5.08 31.6255 3.71C30.7919 3.10939 29.9128 2.57445 28.9963 2.11ZM33.7949 5.49C32.7952 6.03 28.6864 8.61 28.7964 15.16C28.9355 16.695 29.2888 18.203 29.8461 19.64C31.1657 23.59 32.8452 28.5 29.0263 35.41C28.3798 36.6478 27.5768 37.7972 26.637 38.83C30.6468 37.4199 34.1031 34.7683 36.5041 31.26C36.934 28.26 35.8443 25.89 34.6647 23.38C33.5424 21.3812 32.8799 19.1572 32.7252 16.87C32.7532 15.4053 33.2105 13.981 34.0404 12.7739C34.8704 11.5668 36.0364 10.6301 37.3939 10.08C36.5075 8.51714 35.4147 7.08088 34.1448 5.81L33.7949 5.49ZM38.3536 12C37.3704 12.3741 36.5205 13.0321 35.9118 13.8902C35.303 14.7484 34.9629 15.7681 34.9346 16.82C35.096 18.786 35.6827 20.6933 36.6541 22.41C37.4791 23.9984 38.1197 25.676 38.5635 27.41C39.7595 24.4266 40.219 21.1988 39.9031 18C39.7043 15.9311 39.1814 13.9064 38.3536 12ZM15.2503 39.43C17.7496 37.61 21.3285 34.1 21.1486 32.34C21.1486 32.17 21.0786 31.74 20.1489 31.34C19.5873 31.0767 18.9746 30.9403 18.3544 30.9403C17.7342 30.9403 17.1215 31.0767 16.5599 31.34C14.0007 32.39 12.1412 35.92 11.2614 38C11.6213 38.17 11.9912 38.34 12.3611 38.49C13.2989 38.8764 14.2647 39.1907 15.2503 39.43Z" fill="white"/>
</g>
</g>
</svg>
